<?xml version="1.0" encoding="UTF-8" standalone="no"?>
<!DOCTYPE svg PUBLIC "-//W3C//DTD SVG 1.1//EN"
 "http://www.w3.org/Graphics/SVG/1.1/DTD/svg11.dtd">
<!-- Generated by graphviz version 2.43.0 (0)
 -->
<!-- Title: PerformVirtualExperiment Pages: 1 -->
<svg width="1776pt" height="851pt"
 viewBox="0.00 0.00 1775.87 851.00" xmlns="http://www.w3.org/2000/svg" xmlns:xlink="http://www.w3.org/1999/xlink">
<g id="graph0" class="graph" transform="scale(1 1) rotate(0) translate(4 847)">
<title>PerformVirtualExperiment</title>
<polygon fill="white" stroke="transparent" points="-4,4 -4,-847 1771.87,-847 1771.87,4 -4,4"/>
<g id="clust1" class="cluster">
<title>cluster_sys</title>
<polygon fill="white" stroke="black" points="173,-62 173,-835 1759.87,-835 1759.87,-62 173,-62"/>
<text text-anchor="middle" x="966.43" y="-821.4" font-family="Arial" font-size="12.00">Beaker Breakers Studio (Virtual Experiment Scope)</text>
</g>
<!-- Student -->
<g id="node1" class="node">
<title>Student</title>
<polygon fill="none" stroke="black" points="108,-239 0,-239 0,-203 108,-203 108,-239"/>
<text text-anchor="middle" x="54" y="-218.2" font-family="Arial" font-size="11.00">Student</text>
</g>
<!-- UC03 -->
<g id="node3" class="node">
<title>UC03</title>
<ellipse fill="none" stroke="black" cx="1010.98" cy="-484" rx="70" ry="31.23"/>
<text text-anchor="middle" x="1010.98" y="-493.2" font-family="Arial" font-size="11.00">UC&#45;03</text>
<text text-anchor="middle" x="1010.98" y="-481.2" font-family="Arial" font-size="11.00">Perform Virtual</text>
<text text-anchor="middle" x="1010.98" y="-469.2" font-family="Arial" font-size="11.00">Experiment</text>
</g>
<!-- Student&#45;&gt;UC03 -->
<g id="edge1" class="edge">
<title>Student&#45;&gt;UC03</title>
<path fill="none" stroke="black" d="M103.22,-202.92C242.86,-154 652.58,-35.11 887.98,-227 962.3,-287.59 877.17,-360.03 932.98,-438 939.96,-447.75 949.7,-455.8 959.92,-462.28"/>
</g>
<!-- UC08 -->
<g id="node4" class="node">
<title>UC08</title>
<ellipse fill="none" stroke="black" cx="277.49" cy="-547" rx="78.48" ry="31.23"/>
<text text-anchor="middle" x="277.49" y="-556.2" font-family="Arial" font-size="11.00">UC&#45;08</text>
<text text-anchor="middle" x="277.49" y="-544.2" font-family="Arial" font-size="11.00">Browse Experiment</text>
<text text-anchor="middle" x="277.49" y="-532.2" font-family="Arial" font-size="11.00">Library</text>
</g>
<!-- Student&#45;&gt;UC08 -->
<g id="edge2" class="edge">
<title>Student&#45;&gt;UC08</title>
<path fill="none" stroke="black" d="M67.54,-239.46C104.15,-293.34 211.09,-450.74 256.12,-517.02"/>
</g>
<!-- Gemini -->
<g id="node2" class="node">
<title>Gemini</title>
<polygon fill="none" stroke="black" points="1709.17,-36 1601.17,-36 1601.17,0 1709.17,0 1709.17,-36"/>
<text text-anchor="middle" x="1655.17" y="-21.2" font-family="Arial" font-size="11.00">Gemini API</text>
<text text-anchor="middle" x="1655.17" y="-9.2" font-family="Arial" font-size="11.00">«external»</text>
</g>
<!-- UC02 -->
<g id="node6" class="node">
<title>UC02</title>
<ellipse fill="none" stroke="black" cx="1359.72" cy="-575" rx="70" ry="30.5"/>
<text text-anchor="middle" x="1359.72" y="-578.2" font-family="Arial" font-size="11.00">UC&#45;02</text>
<text text-anchor="middle" x="1359.72" y="-566.2" font-family="Arial" font-size="11.00">Safety Certification</text>
</g>
<!-- UC03&#45;&gt;UC02 -->
<g id="edge5" class="edge">
<title>UC03&#45;&gt;UC02</title>
<path fill="none" stroke="black" stroke-dasharray="5,2" d="M1075.32,-471.4C1120.02,-465.47 1180.36,-463.55 1228.98,-484 1255.34,-495.09 1251.08,-512.87 1273.98,-530 1282.66,-536.49 1292.4,-542.59 1302.11,-548.08"/>
<polygon fill="black" stroke="black" points="1310.98,-552.94 1300.05,-552.08 1306.59,-550.54 1302.21,-548.14 1302.21,-548.14 1302.21,-548.14 1306.59,-550.54 1304.37,-544.19 1310.98,-552.94 1310.98,-552.94"/>
<text text-anchor="middle" x="1181.48" y="-506.8" font-family="Arial" font-size="9.00">«include»</text>
<text text-anchor="middle" x="1181.48" y="-496.8" font-family="Arial" font-size="9.00">FR&#45;02.3</text>
<text text-anchor="middle" x="1181.48" y="-486.8" font-family="Arial" font-size="9.00">Tier 1 gate</text>
<polyline fill="none" stroke="black" points="1203.48,-484 1159.48,-484 1186.41,-471.75 "/>
</g>
<!-- PREREQ -->
<g id="node7" class="node">
<title>PREREQ</title>
<ellipse fill="none" stroke="black" cx="1359.72" cy="-393" rx="70" ry="30.5"/>
<text text-anchor="middle" x="1359.72" y="-396.2" font-family="Arial" font-size="11.00">Verify Prerequisite</text>
<text text-anchor="middle" x="1359.72" y="-384.2" font-family="Arial" font-size="11.00">Experiment</text>
</g>
<!-- UC03&#45;&gt;PREREQ -->
<g id="edge6" class="edge">
<title>UC03&#45;&gt;PREREQ</title>
<path fill="none" stroke="black" stroke-dasharray="5,2" d="M1064,-463.42C1085.45,-455.42 1110.69,-446.6 1133.98,-440 1183.43,-425.98 1240.09,-414.16 1284.15,-405.88"/>
<polygon fill="black" stroke="black" points="1294.21,-404.01 1285.2,-410.26 1289.29,-404.93 1284.37,-405.84 1284.37,-405.84 1284.37,-405.84 1289.29,-404.93 1283.55,-401.42 1294.21,-404.01 1294.21,-404.01"/>
<text text-anchor="middle" x="1181.48" y="-452.8" font-family="Arial" font-size="9.00">«include»</text>
<text text-anchor="middle" x="1181.48" y="-442.8" font-family="Arial" font-size="9.00">FR&#45;03.3</text>
<polyline fill="none" stroke="black" points="1201.98,-440 1160.98,-440 1176.37,-428.87 "/>
</g>
<!-- STEPS -->
<g id="node8" class="node">
<title>STEPS</title>
<ellipse fill="none" stroke="black" cx="1359.72" cy="-211" rx="70" ry="30.5"/>
<text text-anchor="middle" x="1359.72" y="-214.2" font-family="Arial" font-size="11.00">Present Steps in</text>
<text text-anchor="middle" x="1359.72" y="-202.2" font-family="Arial" font-size="11.00">Declared Order</text>
</g>
<!-- UC03&#45;&gt;STEPS -->
<g id="edge7" class="edge">
<title>UC03&#45;&gt;STEPS</title>
<path fill="none" stroke="black" stroke-dasharray="5,2" d="M1060.65,-461.78C1071.06,-455.28 1081.23,-447.36 1088.98,-438 1126.1,-393.16 1094.55,-357.83 1133.98,-315 1174.93,-270.52 1238.7,-243.52 1287.87,-228.23"/>
<polygon fill="black" stroke="black" points="1297.5,-225.32 1289.23,-232.52 1292.72,-226.77 1287.93,-228.21 1287.93,-228.21 1287.93,-228.21 1292.72,-226.77 1286.63,-223.9 1297.5,-225.32 1297.5,-225.32"/>
<text text-anchor="middle" x="1181.48" y="-327.8" font-family="Arial" font-size="9.00">«include»</text>
<text text-anchor="middle" x="1181.48" y="-317.8" font-family="Arial" font-size="9.00">FR&#45;03.4</text>
<polyline fill="none" stroke="black" points="1201.98,-315 1160.98,-315 1156.37,-294.04 "/>
</g>
<!-- RECORD -->
<g id="node9" class="node">
<title>RECORD</title>
<ellipse fill="none" stroke="black" cx="1359.72" cy="-757" rx="70" ry="30.5"/>
<text text-anchor="middle" x="1359.72" y="-760.2" font-family="Arial" font-size="11.00">Record Step</text>
<text text-anchor="middle" x="1359.72" y="-748.2" font-family="Arial" font-size="11.00">Completion</text>
</g>
<!-- UC03&#45;&gt;RECORD -->
<g id="edge8" class="edge">
<title>UC03&#45;&gt;RECORD</title>
<path fill="none" stroke="black" stroke-dasharray="5,2" d="M1046.89,-510.73C1071.11,-529.11 1104.23,-553.91 1133.98,-575 1175.5,-604.45 1193.71,-602.28 1228.98,-639 1255.38,-666.49 1246.18,-685.93 1273.98,-712 1281.62,-719.17 1290.62,-725.53 1299.86,-731.05"/>
<polygon fill="black" stroke="black" points="1308.74,-736.08 1297.83,-735.07 1304.39,-733.62 1300.04,-731.15 1300.04,-731.15 1300.04,-731.15 1304.39,-733.62 1302.26,-727.24 1308.74,-736.08 1308.74,-736.08"/>
<text text-anchor="middle" x="1181.48" y="-651.8" font-family="Arial" font-size="9.00">«include»</text>
<text text-anchor="middle" x="1181.48" y="-641.8" font-family="Arial" font-size="9.00">FR&#45;03.5</text>
<polyline fill="none" stroke="black" points="1201.98,-639 1160.98,-639 1204.75,-617.4 "/>
</g>
<!-- EQN -->
<g id="node10" class="node">
<title>EQN</title>
<ellipse fill="none" stroke="black" cx="1359.72" cy="-302" rx="85.99" ry="30.5"/>
<text text-anchor="middle" x="1359.72" y="-305.2" font-family="Arial" font-size="11.00">Display Chemical Equation</text>
<text text-anchor="middle" x="1359.72" y="-293.2" font-family="Arial" font-size="11.00">and Explanatory Note</text>
</g>
<!-- UC03&#45;&gt;EQN -->
<g id="edge9" class="edge">
<title>UC03&#45;&gt;EQN</title>
<path fill="none" stroke="black" stroke-dasharray="5,2" d="M1056.56,-460.24C1067.56,-453.61 1079.03,-446.01 1088.98,-438 1111.75,-419.66 1109.77,-406.4 1133.98,-390 1178.74,-359.68 1235.48,-337.56 1280.74,-323.09"/>
<polygon fill="black" stroke="black" points="1290.51,-320.03 1282.32,-327.31 1285.74,-321.52 1280.97,-323.02 1280.97,-323.02 1280.97,-323.02 1285.74,-321.52 1279.62,-318.72 1290.51,-320.03 1290.51,-320.03"/>
<text text-anchor="middle" x="1181.48" y="-402.8" font-family="Arial" font-size="9.00">«include»</text>
<text text-anchor="middle" x="1181.48" y="-392.8" font-family="Arial" font-size="9.00">FR&#45;03.6</text>
<polyline fill="none" stroke="black" points="1201.98,-390 1160.98,-390 1165.4,-370.96 "/>
</g>
<!-- UC25 -->
<g id="node13" class="node">
<title>UC25</title>
<ellipse fill="none" stroke="black" cx="1359.72" cy="-119" rx="70" ry="31.23"/>
<text text-anchor="middle" x="1359.72" y="-128.2" font-family="Arial" font-size="11.00">UC&#45;25</text>
<text text-anchor="middle" x="1359.72" y="-116.2" font-family="Arial" font-size="11.00">Receive AI Step</text>
<text text-anchor="middle" x="1359.72" y="-104.2" font-family="Arial" font-size="11.00">Guidance</text>
</g>
<!-- UC03&#45;&gt;UC25 -->
<g id="edge10" class="edge">
<title>UC03&#45;&gt;UC25</title>
<path fill="none" stroke="black" stroke-dasharray="5,2" d="M1062.05,-462.3C1072.27,-455.81 1082.01,-447.76 1088.98,-438 1145.43,-358.89 1073.59,-300.15 1133.98,-224 1155.14,-197.31 1235.97,-163.51 1294.64,-141.58"/>
<polygon fill="black" stroke="black" points="1304.22,-138.03 1296.41,-145.73 1299.53,-139.77 1294.84,-141.51 1294.84,-141.51 1294.84,-141.51 1299.53,-139.77 1293.28,-137.29 1304.22,-138.03 1304.22,-138.03"/>
<text text-anchor="middle" x="1181.48" y="-236.8" font-family="Arial" font-size="9.00">«include»</text>
<text text-anchor="middle" x="1181.48" y="-226.8" font-family="Arial" font-size="9.00">FR&#45;03.7</text>
<polyline fill="none" stroke="black" points="1201.98,-224 1160.98,-224 1159.69,-202.99 "/>
</g>
<!-- UC09 -->
<g id="node15" class="node">
<title>UC09</title>
<ellipse fill="none" stroke="black" cx="1359.72" cy="-666" rx="71.13" ry="30.5"/>
<text text-anchor="middle" x="1359.72" y="-669.2" font-family="Arial" font-size="11.00">UC&#45;09</text>
<text text-anchor="middle" x="1359.72" y="-657.2" font-family="Arial" font-size="11.00">Take Knowledge Quiz</text>
</g>
<!-- UC03&#45;&gt;UC09 -->
<g id="edge11" class="edge">
<title>UC03&#45;&gt;UC09</title>
<path fill="none" stroke="black" stroke-dasharray="5,2" d="M1070.91,-500.25C1130.65,-517.07 1216.07,-542.23 1228.98,-552 1258.16,-574.11 1246.95,-596.3 1273.98,-621 1281.62,-627.98 1290.54,-634.23 1299.68,-639.68"/>
<polygon fill="black" stroke="black" points="1308.47,-644.67 1297.55,-643.65 1304.12,-642.2 1299.77,-639.73 1299.77,-639.73 1299.77,-639.73 1304.12,-642.2 1301.99,-635.82 1308.47,-644.67 1308.47,-644.67"/>
<text text-anchor="middle" x="1181.48" y="-564.8" font-family="Arial" font-size="9.00">«include»</text>
<text text-anchor="middle" x="1181.48" y="-554.8" font-family="Arial" font-size="9.00">FR&#45;04.1</text>
<polyline fill="none" stroke="black" points="1201.98,-552 1160.98,-552 1190.29,-536.19 "/>
</g>
<!-- FILTER -->
<g id="node5" class="node">
<title>FILTER</title>
<ellipse fill="none" stroke="black" cx="648.98" cy="-640" rx="70" ry="30.5"/>
<text text-anchor="middle" x="648.98" y="-643.2" font-family="Arial" font-size="11.00">Filter Library by</text>
<text text-anchor="middle" x="648.98" y="-631.2" font-family="Arial" font-size="11.00">Difficulty and Topic</text>
</g>
<!-- UC08&#45;&gt;FILTER -->
<g id="edge4" class="edge">
<title>UC08&#45;&gt;FILTER</title>
<path fill="none" stroke="black" stroke-dasharray="5,2" d="M344.12,-563.52C409.8,-580.05 510.51,-605.4 577.77,-622.33"/>
<polygon fill="black" stroke="black" points="587.85,-624.87 577.05,-626.79 583,-623.65 578.15,-622.42 578.15,-622.42 578.15,-622.42 583,-623.65 579.25,-618.06 587.85,-624.87 587.85,-624.87"/>
<text text-anchor="middle" x="467.48" y="-621.8" font-family="Arial" font-size="9.00">«include»</text>
<text text-anchor="middle" x="467.48" y="-611.8" font-family="Arial" font-size="9.00">FR&#45;03.2</text>
<polyline fill="none" stroke="black" points="487.98,-609 446.98,-609 473.08,-595.98 "/>
</g>
<!-- RESUME -->
<g id="node11" class="node">
<title>RESUME</title>
<ellipse fill="none" stroke="black" cx="648.98" cy="-549" rx="70" ry="30.5"/>
<text text-anchor="middle" x="648.98" y="-552.2" font-family="Arial" font-size="11.00">Resume Incomplete</text>
<text text-anchor="middle" x="648.98" y="-540.2" font-family="Arial" font-size="11.00">Experiment</text>
</g>
<!-- RESUME&#45;&gt;UC03 -->
<g id="edge22" class="edge">
<title>RESUME&#45;&gt;UC03</title>
<path fill="none" stroke="black" stroke-dasharray="5,2" d="M715.82,-539.56C763.71,-532.44 830.02,-522.03 887.98,-511 904.39,-507.88 921.97,-504.19 938.53,-500.56"/>
<polygon fill="black" stroke="black" points="948.69,-498.31 939.89,-504.87 943.8,-499.39 938.92,-500.47 938.92,-500.47 938.92,-500.47 943.8,-499.39 937.95,-496.08 948.69,-498.31 948.69,-498.31"/>
<text text-anchor="middle" x="825.98" y="-554.8" font-family="Arial" font-size="9.00">«extend»</text>
<text text-anchor="middle" x="825.98" y="-544.8" font-family="Arial" font-size="9.00">FR&#45;03.5</text>
<text text-anchor="middle" x="825.98" y="-534.8" font-family="Arial" font-size="9.00">[experiment incomplete]</text>
<polyline fill="none" stroke="black" points="874.98,-532 776.98,-532 821.73,-522.83 "/>
</g>
<!-- REPEAT -->
<g id="node12" class="node">
<title>REPEAT</title>
<ellipse fill="none" stroke="black" cx="648.98" cy="-458" rx="70" ry="30.5"/>
<text text-anchor="middle" x="648.98" y="-461.2" font-family="Arial" font-size="11.00">Repeat Completed</text>
<text text-anchor="middle" x="648.98" y="-449.2" font-family="Arial" font-size="11.00">Experiment</text>
</g>
<!-- REPEAT&#45;&gt;UC03 -->
<g id="edge23" class="edge">
<title>REPEAT&#45;&gt;UC03</title>
<path fill="none" stroke="black" stroke-dasharray="5,2" d="M718.11,-462.92C778.97,-467.32 868.08,-473.75 931.81,-478.35"/>
<polygon fill="black" stroke="black" points="941.81,-479.08 931.52,-482.84 936.83,-478.72 931.84,-478.36 931.84,-478.36 931.84,-478.36 936.83,-478.72 932.16,-473.87 941.81,-479.08 941.81,-479.08"/>
<text text-anchor="middle" x="825.98" y="-496.8" font-family="Arial" font-size="9.00">«extend»</text>
<text text-anchor="middle" x="825.98" y="-486.8" font-family="Arial" font-size="9.00">FR&#45;03.8</text>
<text text-anchor="middle" x="825.98" y="-476.8" font-family="Arial" font-size="9.00">[experiment already complete]</text>
<polyline fill="none" stroke="black" points="887.98,-474 763.98,-474 826.99,-470.78 "/>
</g>
<!-- UC25&#45;&gt;Gemini -->
<g id="edge3" class="edge">
<title>UC25&#45;&gt;Gemini</title>
<path fill="none" stroke="black" d="M1415.57,-100.12C1468.82,-81.79 1549.09,-54.17 1601.56,-36.11"/>
</g>
<!-- PREAUTH -->
<g id="node14" class="node">
<title>PREAUTH</title>
<ellipse fill="none" stroke="black" cx="1010.98" cy="-119" rx="71.13" ry="30.5"/>
<text text-anchor="middle" x="1010.98" y="-122.2" font-family="Arial" font-size="11.00">Present Pre Authored</text>
<text text-anchor="middle" x="1010.98" y="-110.2" font-family="Arial" font-size="11.00">Guidance</text>
</g>
<!-- PREAUTH&#45;&gt;UC25 -->
<g id="edge18" class="edge">
<title>PREAUTH&#45;&gt;UC25</title>
<path fill="none" stroke="black" stroke-dasharray="5,2" d="M1082.15,-119C1139.3,-119 1219.97,-119 1279.45,-119"/>
<polygon fill="black" stroke="black" points="1289.55,-119 1279.55,-123.5 1284.55,-119 1279.55,-119 1279.55,-119 1279.55,-119 1284.55,-119 1279.55,-114.5 1289.55,-119 1289.55,-119"/>
<text text-anchor="middle" x="1181.48" y="-141.8" font-family="Arial" font-size="9.00">«extend»</text>
<text text-anchor="middle" x="1181.48" y="-131.8" font-family="Arial" font-size="9.00">NFR&#45;06</text>
<text text-anchor="middle" x="1181.48" y="-121.8" font-family="Arial" font-size="9.00">[AI service unavailable]</text>
<polyline fill="none" stroke="black" points="1228.98,-119 1133.98,-119 1181.55,-119 "/>
</g>
<!-- FEEDBK -->
<g id="node16" class="node">
<title>FEEDBK</title>
<ellipse fill="none" stroke="black" cx="1655.17" cy="-719" rx="78.9" ry="30.5"/>
<text text-anchor="middle" x="1655.17" y="-722.2" font-family="Arial" font-size="11.00">Show Answer Feedback</text>
<text text-anchor="middle" x="1655.17" y="-710.2" font-family="Arial" font-size="11.00">and Explanation</text>
</g>
<!-- UC09&#45;&gt;FEEDBK -->
<g id="edge12" class="edge">
<title>UC09&#45;&gt;FEEDBK</title>
<path fill="none" stroke="black" stroke-dasharray="5,2" d="M1425.48,-677.7C1469.04,-685.56 1526.79,-695.99 1573.35,-704.4"/>
<polygon fill="black" stroke="black" points="1583.41,-706.22 1572.77,-708.87 1578.49,-705.33 1573.57,-704.44 1573.57,-704.44 1573.57,-704.44 1578.49,-705.33 1574.37,-700.01 1583.41,-706.22 1583.41,-706.22"/>
<text text-anchor="middle" x="1510.97" y="-707.8" font-family="Arial" font-size="9.00">«include»</text>
<text text-anchor="middle" x="1510.97" y="-697.8" font-family="Arial" font-size="9.00">FR&#45;04.2</text>
<polyline fill="none" stroke="black" points="1531.47,-695 1490.47,-695 1513.37,-693.57 "/>
</g>
<!-- RECQ -->
<g id="node17" class="node">
<title>RECQ</title>
<ellipse fill="none" stroke="black" cx="1655.17" cy="-628" rx="70" ry="30.5"/>
<text text-anchor="middle" x="1655.17" y="-625.2" font-family="Arial" font-size="11.00">Record Quiz Attempt</text>
</g>
<!-- UC09&#45;&gt;RECQ -->
<g id="edge13" class="edge">
<title>UC09&#45;&gt;RECQ</title>
<path fill="none" stroke="black" stroke-dasharray="5,2" d="M1423.51,-652.44C1444.7,-648.26 1468.53,-643.98 1490.47,-641 1518.02,-637.26 1548.35,-634.49 1575.33,-632.48"/>
<polygon fill="black" stroke="black" points="1585.49,-631.75 1575.84,-636.96 1580.5,-632.11 1575.52,-632.47 1575.52,-632.47 1575.52,-632.47 1580.5,-632.11 1575.19,-627.98 1585.49,-631.75 1585.49,-631.75"/>
<text text-anchor="middle" x="1510.97" y="-653.8" font-family="Arial" font-size="9.00">«include»</text>
<text text-anchor="middle" x="1510.97" y="-643.8" font-family="Arial" font-size="9.00">FR&#45;04.4</text>
<polyline fill="none" stroke="black" points="1531.47,-641 1490.47,-641 1509.55,-638.61 "/>
</g>
<!-- UC10 -->
<g id="node18" class="node">
<title>UC10</title>
<ellipse fill="none" stroke="black" cx="1655.17" cy="-523" rx="74.49" ry="31.23"/>
<text text-anchor="middle" x="1655.17" y="-532.2" font-family="Arial" font-size="11.00">UC&#45;10</text>
<text text-anchor="middle" x="1655.17" y="-520.2" font-family="Arial" font-size="11.00">Award Experience</text>
<text text-anchor="middle" x="1655.17" y="-508.2" font-family="Arial" font-size="11.00">Points</text>
</g>
<!-- UC09&#45;&gt;UC10 -->
<g id="edge14" class="edge">
<title>UC09&#45;&gt;UC10</title>
<path fill="none" stroke="black" stroke-dasharray="5,2" d="M1407.54,-643.18C1458.94,-618.14 1541.48,-577.91 1596.74,-550.98"/>
<polygon fill="black" stroke="black" points="1606.05,-546.45 1599.03,-554.87 1601.56,-548.64 1597.06,-550.83 1597.06,-550.83 1597.06,-550.83 1601.56,-548.64 1595.09,-546.78 1606.05,-546.45 1606.05,-546.45"/>
<text text-anchor="middle" x="1510.97" y="-610.8" font-family="Arial" font-size="9.00">«include»</text>
<text text-anchor="middle" x="1510.97" y="-600.8" font-family="Arial" font-size="9.00">FR&#45;04.3</text>
<polyline fill="none" stroke="black" points="1531.47,-598 1490.47,-598 1505.07,-595.66 "/>
</g>
<!-- REQUIZ -->
<g id="node19" class="node">
<title>REQUIZ</title>
<ellipse fill="none" stroke="black" cx="1010.98" cy="-666" rx="70" ry="30.5"/>
<text text-anchor="middle" x="1010.98" y="-663.2" font-family="Arial" font-size="11.00">Reattempt Failed Quiz</text>
</g>
<!-- REQUIZ&#45;&gt;UC09 -->
<g id="edge19" class="edge">
<title>REQUIZ&#45;&gt;UC09</title>
<path fill="none" stroke="black" stroke-dasharray="5,2" d="M1081.31,-666C1138.2,-666 1218.81,-666 1278.48,-666"/>
<polygon fill="black" stroke="black" points="1288.62,-666 1278.62,-670.5 1283.62,-666 1278.62,-666 1278.62,-666 1278.62,-666 1283.62,-666 1278.62,-661.5 1288.62,-666 1288.62,-666"/>
<text text-anchor="middle" x="1181.48" y="-688.8" font-family="Arial" font-size="9.00">«extend»</text>
<text text-anchor="middle" x="1181.48" y="-678.8" font-family="Arial" font-size="9.00">FR&#45;04.5</text>
<text text-anchor="middle" x="1181.48" y="-668.8" font-family="Arial" font-size="9.00">[quiz not passed]</text>
<polyline fill="none" stroke="black" points="1216.48,-666 1146.48,-666 1181.29,-666 "/>
</g>
<!-- UC04 -->
<g id="node20" class="node">
<title>UC04</title>
<ellipse fill="none" stroke="black" cx="648.98" cy="-336" rx="70" ry="30.5"/>
<text text-anchor="middle" x="648.98" y="-339.2" font-family="Arial" font-size="11.00">UC&#45;04</text>
<text text-anchor="middle" x="648.98" y="-327.2" font-family="Arial" font-size="11.00">AR Mode Session</text>
</g>
<!-- UC04&#45;&gt;UC03 -->
<g id="edge21" class="edge">
<title>UC04&#45;&gt;UC03</title>
<path fill="none" stroke="black" stroke-dasharray="5,2" d="M698.51,-357.68C718.64,-366.46 742.32,-376.51 763.98,-385 818.42,-406.34 833.72,-407.19 887.98,-429 909.48,-437.64 932.74,-447.9 953.13,-457.2"/>
<polygon fill="black" stroke="black" points="962.28,-461.4 951.31,-461.32 957.73,-459.31 953.19,-457.23 953.19,-457.23 953.19,-457.23 957.73,-459.31 955.06,-453.14 962.28,-461.4 962.28,-461.4"/>
<text text-anchor="middle" x="825.98" y="-451.8" font-family="Arial" font-size="9.00">«extend»</text>
<text text-anchor="middle" x="825.98" y="-441.8" font-family="Arial" font-size="9.00">FR&#45;05.1</text>
<text text-anchor="middle" x="825.98" y="-431.8" font-family="Arial" font-size="9.00">[AR available for experiment]</text>
<polyline fill="none" stroke="black" points="884.98,-429 766.98,-429 837.16,-410.43 "/>
</g>
<!-- CAM -->
<g id="node21" class="node">
<title>CAM</title>
<ellipse fill="none" stroke="black" cx="1010.98" cy="-301" rx="70" ry="30.5"/>
<text text-anchor="middle" x="1010.98" y="-304.2" font-family="Arial" font-size="11.00">Request Camera</text>
<text text-anchor="middle" x="1010.98" y="-292.2" font-family="Arial" font-size="11.00">Permission</text>
</g>
<!-- UC04&#45;&gt;CAM -->
<g id="edge15" class="edge">
<title>UC04&#45;&gt;CAM</title>
<path fill="none" stroke="black" stroke-dasharray="5,2" d="M706.89,-318.85C724.97,-314.12 745.16,-309.59 763.98,-307 819.39,-299.37 882.48,-297.98 930.89,-298.44"/>
<polygon fill="black" stroke="black" points="940.99,-298.56 930.93,-302.94 935.99,-298.5 930.99,-298.44 930.99,-298.44 930.99,-298.44 935.99,-298.5 931.04,-293.94 940.99,-298.56 940.99,-298.56"/>
<text text-anchor="middle" x="825.98" y="-319.8" font-family="Arial" font-size="9.00">«include»</text>
<text text-anchor="middle" x="825.98" y="-309.8" font-family="Arial" font-size="9.00">FR&#45;05.2</text>
<polyline fill="none" stroke="black" points="846.48,-307 805.48,-307 824.98,-301.03 "/>
</g>
<!-- SURF -->
<g id="node22" class="node">
<title>SURF</title>
<ellipse fill="none" stroke="black" cx="1010.98" cy="-392" rx="70" ry="30.5"/>
<text text-anchor="middle" x="1010.98" y="-395.2" font-family="Arial" font-size="11.00">Detect and Anchor</text>
<text text-anchor="middle" x="1010.98" y="-383.2" font-family="Arial" font-size="11.00">to Surface</text>
</g>
<!-- UC04&#45;&gt;SURF -->
<g id="edge16" class="edge">
<title>UC04&#45;&gt;SURF</title>
<path fill="none" stroke="black" stroke-dasharray="5,2" d="M718.02,-341.03C765.81,-345.14 831.08,-351.94 887.98,-362 905.39,-365.08 924.02,-369.22 941.33,-373.43"/>
<polygon fill="black" stroke="black" points="951.36,-375.92 940.57,-377.88 946.51,-374.72 941.66,-373.51 941.66,-373.51 941.66,-373.51 946.51,-374.72 942.74,-369.15 951.36,-375.92 951.36,-375.92"/>
<text text-anchor="middle" x="825.98" y="-374.8" font-family="Arial" font-size="9.00">«include»</text>
<text text-anchor="middle" x="825.98" y="-364.8" font-family="Arial" font-size="9.00">FR&#45;05.3</text>
<polyline fill="none" stroke="black" points="846.48,-362 805.48,-362 828.43,-352.9 "/>
</g>
<!-- REL -->
<g id="node24" class="node">
<title>REL</title>
<ellipse fill="none" stroke="black" cx="1010.98" cy="-210" rx="70" ry="30.5"/>
<text text-anchor="middle" x="1010.98" y="-213.2" font-family="Arial" font-size="11.00">Release Camera and</text>
<text text-anchor="middle" x="1010.98" y="-201.2" font-family="Arial" font-size="11.00">Motion Sensors</text>
</g>
<!-- UC04&#45;&gt;REL -->
<g id="edge17" class="edge">
<title>UC04&#45;&gt;REL</title>
<path fill="none" stroke="black" stroke-dasharray="5,2" d="M688.21,-310.67C709.74,-297.33 737.54,-281.58 763.98,-271 819.68,-248.71 885.84,-232.86 935.51,-222.91"/>
<polygon fill="black" stroke="black" points="945.53,-220.94 936.59,-227.29 940.62,-221.9 935.72,-222.87 935.72,-222.87 935.72,-222.87 940.62,-221.9 934.85,-218.45 945.53,-220.94 945.53,-220.94"/>
<text text-anchor="middle" x="825.98" y="-283.8" font-family="Arial" font-size="9.00">«include»</text>
<text text-anchor="middle" x="825.98" y="-273.8" font-family="Arial" font-size="9.00">FR&#45;05.6</text>
<polyline fill="none" stroke="black" points="846.48,-271 805.48,-271 817.04,-252.4 "/>
</g>
<!-- SIM -->
<g id="node23" class="node">
<title>SIM</title>
<ellipse fill="none" stroke="black" cx="277.49" cy="-336" rx="70" ry="30.5"/>
<text text-anchor="middle" x="277.49" y="-339.2" font-family="Arial" font-size="11.00">Present Simulated</text>
<text text-anchor="middle" x="277.49" y="-327.2" font-family="Arial" font-size="11.00">Mode</text>
</g>
<!-- SIM&#45;&gt;UC04 -->
<g id="edge20" class="edge">
<title>SIM&#45;&gt;UC04</title>
<path fill="none" stroke="black" stroke-dasharray="5,2" d="M347.55,-336C410.3,-336 502.85,-336 568.62,-336"/>
<polygon fill="black" stroke="black" points="578.94,-336 568.94,-340.5 573.94,-336 568.94,-336 568.94,-336 568.94,-336 573.94,-336 568.94,-331.5 578.94,-336 578.94,-336"/>
<text text-anchor="middle" x="467.48" y="-368.8" font-family="Arial" font-size="9.00">«extend»</text>
<text text-anchor="middle" x="467.48" y="-358.8" font-family="Arial" font-size="9.00">FR&#45;05.4</text>
<text text-anchor="middle" x="467.48" y="-348.8" font-family="Arial" font-size="9.00">[device unsupported, permission</text>
<text text-anchor="middle" x="467.48" y="-338.8" font-family="Arial" font-size="9.00">refused or no surface found]</text>
<polyline fill="none" stroke="black" points="533.98,-336 400.98,-336 467.53,-336 "/>
</g>
<!-- NOTE1 -->
<g id="node25" class="node">
<title>NOTE1</title>
<polygon fill="none" stroke="black" points="1082.98,-787.5 932.98,-787.5 932.98,-726.5 1088.98,-726.5 1088.98,-781.5 1082.98,-787.5"/>
<polyline fill="none" stroke="black" points="1082.98,-787.5 1082.98,-781.5 "/>
<polyline fill="none" stroke="black" points="1088.98,-781.5 1082.98,-781.5 "/>
<text text-anchor="middle" x="1010.98" y="-774.8" font-family="Arial" font-size="9.00">NFR&#45;05</text>
<text text-anchor="middle" x="1010.98" y="-764.8" font-family="Arial" font-size="9.00">No recorded progress, experience</text>
<text text-anchor="middle" x="1010.98" y="-754.8" font-family="Arial" font-size="9.00">point or badge is lost on a page</text>
<text text-anchor="middle" x="1010.98" y="-744.8" font-family="Arial" font-size="9.00">refresh, session expiry or network</text>
<text text-anchor="middle" x="1010.98" y="-734.8" font-family="Arial" font-size="9.00">interruption.</text>
</g>
<!-- NOTE1&#45;&gt;RECORD -->
<g id="edge24" class="edge">
<title>NOTE1&#45;&gt;RECORD</title>
<path fill="none" stroke="black" stroke-dasharray="1,5" d="M1089.36,-757C1149.34,-757 1231.7,-757 1289.51,-757"/>
</g>
<!-- NOTE2 -->
<g id="node26" class="node">
<title>NOTE2</title>
<polygon fill="none" stroke="black" points="1425.72,-514.5 1287.72,-514.5 1287.72,-453.5 1431.72,-453.5 1431.72,-508.5 1425.72,-514.5"/>
<polyline fill="none" stroke="black" points="1425.72,-514.5 1425.72,-508.5 "/>
<polyline fill="none" stroke="black" points="1431.72,-508.5 1425.72,-508.5 "/>
<text text-anchor="middle" x="1359.72" y="-496.8" font-family="Arial" font-size="9.00">FR&#45;06.2</text>
<text text-anchor="middle" x="1359.72" y="-486.8" font-family="Arial" font-size="9.00">Experience points are never</text>
<text text-anchor="middle" x="1359.72" y="-476.8" font-family="Arial" font-size="9.00">awarded for the speed at which</text>
<text text-anchor="middle" x="1359.72" y="-466.8" font-family="Arial" font-size="9.00">a step or quiz is completed.</text>
</g>
<!-- NOTE2&#45;&gt;UC10 -->
<g id="edge25" class="edge">
<title>NOTE2&#45;&gt;UC10</title>
<path fill="none" stroke="black" stroke-dasharray="1,5" d="M1431.76,-493.44C1478.06,-499.6 1538.22,-507.59 1584.29,-513.71"/>
</g>
</g>
</svg>
